<?xml version="1.0" standalone="no"?>
<!DOCTYPE svg PUBLIC "-//W3C//DTD SVG 20010904//EN"
 "http://www.w3.org/TR/2001/REC-SVG-20010904/DTD/svg10.dtd">
<svg version="1.0" xmlns="http://www.w3.org/2000/svg"
 width="382.000000pt" height="382.000000pt" viewBox="0 0 382.000000 382.000000"
 preserveAspectRatio="xMidYMid meet">
<metadata>
Created by potrace 1.11, written by Peter Selinger 2001-2013
</metadata>
<g transform="translate(0.000000,382.000000) scale(0.100000,-0.100000)"
fill="#000000" stroke="none">
<path d="M5 3808 c-3 -7 -4 -654 -3 -1438 l3 -1425 218 -3 c185 -2 217 -5 217
-17 0 -16 82 -57 435 -220 99 -46 268 -124 375 -175 107 -50 211 -99 230 -107
19 -9 91 -42 158 -75 68 -32 125 -58 127 -58 2 0 46 -20 97 -44 302 -144 504
-236 518 -236 10 0 26 21 40 53 13 28 54 117 92 195 37 79 68 145 68 147 0 2
29 65 65 140 36 76 65 138 65 140 0 1 26 58 59 126 32 68 67 144 79 169 11 25
44 95 72 155 29 61 78 166 110 235 32 69 77 166 100 215 23 50 69 149 102 220
34 72 87 186 119 254 33 68 59 125 59 126 0 2 25 57 56 122 129 272 134 284
123 304 -5 10 -14 19 -19 19 -5 0 -47 17 -92 39 -84 39 -164 76 -318 148 -47
22 -105 50 -130 61 -60 27 -297 137 -605 282 -44 20 -122 57 -172 80 l-93 43
-2 266 -3 266 -1073 3 c-853 2 -1074 0 -1077 -10z"/>
</g>
</svg>
